<svg width="909" height="648" viewBox="0 0 909 648" fill="none" xmlns="http://www.w3.org/2000/svg">
<circle cx="168.5" cy="168.5" r="166.5" fill="#1E99CE" stroke="white" stroke-width="4"/>
<circle cx="466.5" cy="168.5" r="166.5" fill="#1E99CE" stroke="white" stroke-width="4"/>
<circle cx="740.5" cy="168.5" r="166.5" fill="#1E99CE" stroke="white" stroke-width="4"/>
<circle cx="168.5" cy="479.5" r="166.5" fill="#1E99CE" stroke="white" stroke-width="4"/>
<circle cx="466.5" cy="479.5" r="166.5" fill="#1E99CE" stroke="white" stroke-width="4"/>
<circle cx="740.5" cy="479.5" r="166.5" fill="#1E99CE" stroke="white" stroke-width="4"/>
<path d="M105.048 179.36C102.504 179.36 100.2 178.808 98.136 177.704C96.096 176.576 94.488 175.028 93.312 173.06C92.16 171.092 91.584 168.872 91.584 166.4C91.584 163.928 92.172 161.708 93.348 159.74C94.524 157.772 96.132 156.236 98.172 155.132C100.236 154.004 102.54 153.44 105.084 153.44C107.148 153.44 109.032 153.8 110.736 154.52C112.44 155.24 113.88 156.284 115.056 157.652L112.032 160.496C110.208 158.528 107.964 157.544 105.3 157.544C103.572 157.544 102.024 157.928 100.656 158.696C99.288 159.44 98.22 160.484 97.452 161.828C96.684 163.172 96.3 164.696 96.3 166.4C96.3 168.104 96.684 169.628 97.452 170.972C98.22 172.316 99.288 173.372 100.656 174.14C102.024 174.884 103.572 175.256 105.3 175.256C107.964 175.256 110.208 174.26 112.032 172.268L115.056 175.148C113.88 176.516 112.428 177.56 110.7 178.28C108.996 179 107.112 179.36 105.048 179.36ZM130.016 159.56C132.44 159.56 134.384 160.268 135.848 161.684C137.312 163.1 138.044 165.2 138.044 167.984V179H133.544V168.56C133.544 166.88 133.148 165.62 132.356 164.78C131.564 163.916 130.436 163.484 128.972 163.484C127.316 163.484 126.008 163.988 125.048 164.996C124.088 165.98 123.608 167.408 123.608 169.28V179H119.108V152.288H123.608V162.008C124.352 161.216 125.264 160.616 126.344 160.208C127.448 159.776 128.672 159.56 130.016 159.56ZM152.569 179.252C150.625 179.252 148.873 178.832 147.313 177.992C145.753 177.152 144.529 175.988 143.641 174.5C142.777 172.988 142.345 171.284 142.345 169.388C142.345 167.492 142.777 165.8 143.641 164.312C144.529 162.824 145.753 161.66 147.313 160.82C148.873 159.98 150.625 159.56 152.569 159.56C154.537 159.56 156.301 159.98 157.861 160.82C159.421 161.66 160.633 162.824 161.497 164.312C162.385 165.8 162.829 167.492 162.829 169.388C162.829 171.284 162.385 172.988 161.497 174.5C160.633 175.988 159.421 177.152 157.861 177.992C156.301 178.832 154.537 179.252 152.569 179.252ZM152.569 175.4C154.225 175.4 155.593 174.848 156.673 173.744C157.753 172.64 158.293 171.188 158.293 169.388C158.293 167.588 157.753 166.136 156.673 165.032C155.593 163.928 154.225 163.376 152.569 163.376C150.913 163.376 149.545 163.928 148.465 165.032C147.409 166.136 146.881 167.588 146.881 169.388C146.881 171.188 147.409 172.64 148.465 173.744C149.545 174.848 150.913 175.4 152.569 175.4ZM171.416 162.584C172.712 160.568 174.992 159.56 178.256 159.56V163.844C177.872 163.772 177.524 163.736 177.212 163.736C175.46 163.736 174.092 164.252 173.108 165.284C172.124 166.292 171.632 167.756 171.632 169.676V179H167.132V159.776H171.416V162.584ZM189.312 159.56C192.144 159.56 194.304 160.244 195.792 161.612C197.304 162.956 198.06 164.996 198.06 167.732V179H193.812V176.66C193.26 177.5 192.468 178.148 191.436 178.604C190.428 179.036 189.204 179.252 187.764 179.252C186.324 179.252 185.064 179.012 183.984 178.532C182.904 178.028 182.064 177.344 181.464 176.48C180.888 175.592 180.6 174.596 180.6 173.492C180.6 171.764 181.236 170.384 182.508 169.352C183.804 168.296 185.832 167.768 188.592 167.768H193.56V167.48C193.56 166.136 193.152 165.104 192.336 164.384C191.544 163.664 190.356 163.304 188.772 163.304C187.692 163.304 186.624 163.472 185.568 163.808C184.536 164.144 183.66 164.612 182.94 165.212L181.176 161.936C182.184 161.168 183.396 160.58 184.812 160.172C186.228 159.764 187.728 159.56 189.312 159.56ZM188.7 175.976C189.828 175.976 190.824 175.724 191.688 175.22C192.576 174.692 193.2 173.948 193.56 172.988V170.756H188.916C186.324 170.756 185.028 171.608 185.028 173.312C185.028 174.128 185.352 174.776 186 175.256C186.648 175.736 187.548 175.976 188.7 175.976ZM203.835 152.288H208.335V179H203.835V152.288ZM232.313 169.496C232.313 169.808 232.289 170.252 232.241 170.828H217.157C217.421 172.244 218.105 173.372 219.209 174.212C220.337 175.028 221.729 175.436 223.385 175.436C225.497 175.436 227.237 174.74 228.605 173.348L231.017 176.12C230.153 177.152 229.061 177.932 227.741 178.46C226.421 178.988 224.933 179.252 223.277 179.252C221.165 179.252 219.305 178.832 217.697 177.992C216.089 177.152 214.841 175.988 213.953 174.5C213.089 172.988 212.657 171.284 212.657 169.388C212.657 167.516 213.077 165.836 213.917 164.348C214.781 162.836 215.969 161.66 217.481 160.82C218.993 159.98 220.697 159.56 222.593 159.56C224.465 159.56 226.133 159.98 227.597 160.82C229.085 161.636 230.237 162.8 231.053 164.312C231.893 165.8 232.313 167.528 232.313 169.496ZM222.593 163.16C221.153 163.16 219.929 163.592 218.921 164.456C217.937 165.296 217.337 166.424 217.121 167.84H228.029C227.837 166.448 227.249 165.32 226.265 164.456C225.281 163.592 224.057 163.16 222.593 163.16Z" fill="white"/>
<path d="M387.532 179L387.496 162.296L379.216 176.12H377.128L368.848 162.512V179H364.384V153.8H368.236L378.244 170.504L388.072 153.8H391.924L391.96 179H387.532ZM416.947 159.776V179H412.663V176.552C411.943 177.416 411.043 178.088 409.963 178.568C408.883 179.024 407.719 179.252 406.471 179.252C403.903 179.252 401.875 178.544 400.387 177.128C398.923 175.688 398.191 173.564 398.191 170.756V159.776H402.691V170.144C402.691 171.872 403.075 173.168 403.843 174.032C404.635 174.872 405.751 175.292 407.191 175.292C408.799 175.292 410.071 174.8 411.007 173.816C411.967 172.808 412.447 171.368 412.447 169.496V159.776H416.947ZM428.779 179.252C427.219 179.252 425.695 179.048 424.207 178.64C422.719 178.232 421.531 177.716 420.643 177.092L422.371 173.672C423.235 174.248 424.267 174.716 425.467 175.076C426.691 175.412 427.891 175.58 429.067 175.58C431.755 175.58 433.099 174.872 433.099 173.456C433.099 172.784 432.751 172.316 432.055 172.052C431.383 171.788 430.291 171.536 428.779 171.296C427.195 171.056 425.899 170.78 424.891 170.468C423.907 170.156 423.043 169.616 422.299 168.848C421.579 168.056 421.219 166.964 421.219 165.572C421.219 163.748 421.975 162.296 423.487 161.216C425.023 160.112 427.087 159.56 429.679 159.56C430.999 159.56 432.319 159.716 433.639 160.028C434.959 160.316 436.039 160.712 436.879 161.216L435.151 164.636C433.519 163.676 431.683 163.196 429.643 163.196C428.323 163.196 427.315 163.4 426.619 163.808C425.947 164.192 425.611 164.708 425.611 165.356C425.611 166.076 425.971 166.592 426.691 166.904C427.435 167.192 428.575 167.468 430.111 167.732C431.647 167.972 432.907 168.248 433.891 168.56C434.875 168.872 435.715 169.4 436.411 170.144C437.131 170.888 437.491 171.944 437.491 173.312C437.491 175.112 436.711 176.552 435.151 177.632C433.591 178.712 431.467 179.252 428.779 179.252ZM441.366 159.776H445.866V179H441.366V159.776ZM443.634 156.608C442.818 156.608 442.134 156.356 441.582 155.852C441.03 155.324 440.754 154.676 440.754 153.908C440.754 153.14 441.03 152.504 441.582 152C442.134 151.472 442.818 151.208 443.634 151.208C444.45 151.208 445.134 151.46 445.686 151.964C446.238 152.444 446.514 153.056 446.514 153.8C446.514 154.592 446.238 155.264 445.686 155.816C445.158 156.344 444.474 156.608 443.634 156.608ZM460.592 179.252C458.6 179.252 456.812 178.832 455.228 177.992C453.644 177.152 452.408 175.988 451.52 174.5C450.632 172.988 450.188 171.284 450.188 169.388C450.188 167.492 450.632 165.8 451.52 164.312C452.408 162.824 453.632 161.66 455.192 160.82C456.776 159.98 458.576 159.56 460.592 159.56C462.488 159.56 464.144 159.944 465.56 160.712C467 161.48 468.08 162.584 468.8 164.024L465.344 166.04C464.792 165.152 464.096 164.492 463.256 164.06C462.44 163.604 461.54 163.376 460.556 163.376C458.876 163.376 457.484 163.928 456.38 165.032C455.276 166.112 454.724 167.564 454.724 169.388C454.724 171.212 455.264 172.676 456.344 173.78C457.448 174.86 458.852 175.4 460.556 175.4C461.54 175.4 462.44 175.184 463.256 174.752C464.096 174.296 464.792 173.624 465.344 172.736L468.8 174.752C468.056 176.192 466.964 177.308 465.524 178.1C464.108 178.868 462.464 179.252 460.592 179.252ZM472.69 159.776H477.19V179H472.69V159.776ZM474.958 156.608C474.142 156.608 473.458 156.356 472.906 155.852C472.354 155.324 472.078 154.676 472.078 153.908C472.078 153.14 472.354 152.504 472.906 152C473.458 151.472 474.142 151.208 474.958 151.208C475.774 151.208 476.458 151.46 477.01 151.964C477.562 152.444 477.838 153.056 477.838 153.8C477.838 154.592 477.562 155.264 477.01 155.816C476.482 156.344 475.798 156.608 474.958 156.608ZM501.169 169.496C501.169 169.808 501.145 170.252 501.097 170.828H486.013C486.277 172.244 486.961 173.372 488.065 174.212C489.193 175.028 490.585 175.436 492.241 175.436C494.353 175.436 496.093 174.74 497.461 173.348L499.873 176.12C499.009 177.152 497.917 177.932 496.597 178.46C495.277 178.988 493.789 179.252 492.133 179.252C490.021 179.252 488.161 178.832 486.553 177.992C484.945 177.152 483.697 175.988 482.809 174.5C481.945 172.988 481.513 171.284 481.513 169.388C481.513 167.516 481.933 165.836 482.773 164.348C483.637 162.836 484.825 161.66 486.337 160.82C487.849 159.98 489.553 159.56 491.449 159.56C493.321 159.56 494.989 159.98 496.453 160.82C497.941 161.636 499.093 162.8 499.909 164.312C500.749 165.8 501.169 167.528 501.169 169.496ZM491.449 163.16C490.009 163.16 488.785 163.592 487.777 164.456C486.793 165.296 486.193 166.424 485.977 167.84H496.885C496.693 166.448 496.105 165.32 495.121 164.456C494.137 163.592 492.913 163.16 491.449 163.16ZM516.399 159.56C518.823 159.56 520.767 160.268 522.231 161.684C523.695 163.1 524.427 165.2 524.427 167.984V179H519.927V168.56C519.927 166.88 519.531 165.62 518.739 164.78C517.947 163.916 516.819 163.484 515.355 163.484C513.699 163.484 512.391 163.988 511.431 164.996C510.471 165.98 509.991 167.408 509.991 169.28V179H505.491V159.776H509.775V162.26C510.519 161.372 511.455 160.7 512.583 160.244C513.711 159.788 514.983 159.56 516.399 159.56ZM536.076 179.252C534.516 179.252 532.992 179.048 531.504 178.64C530.016 178.232 528.828 177.716 527.94 177.092L529.668 173.672C530.532 174.248 531.564 174.716 532.764 175.076C533.988 175.412 535.188 175.58 536.364 175.58C539.052 175.58 540.396 174.872 540.396 173.456C540.396 172.784 540.048 172.316 539.352 172.052C538.68 171.788 537.588 171.536 536.076 171.296C534.492 171.056 533.196 170.78 532.188 170.468C531.204 170.156 530.34 169.616 529.596 168.848C528.876 168.056 528.516 166.964 528.516 165.572C528.516 163.748 529.272 162.296 530.784 161.216C532.32 160.112 534.384 159.56 536.976 159.56C538.296 159.56 539.616 159.716 540.936 160.028C542.256 160.316 543.336 160.712 544.176 161.216L542.448 164.636C540.816 163.676 538.98 163.196 536.94 163.196C535.62 163.196 534.612 163.4 533.916 163.808C533.244 164.192 532.908 164.708 532.908 165.356C532.908 166.076 533.268 166.592 533.988 166.904C534.732 167.192 535.872 167.468 537.408 167.732C538.944 167.972 540.204 168.248 541.188 168.56C542.172 168.872 543.012 169.4 543.708 170.144C544.428 170.888 544.788 171.944 544.788 173.312C544.788 175.112 544.008 176.552 542.448 177.632C540.888 178.712 538.764 179.252 536.076 179.252Z" fill="white"/>
<path d="M617.384 149.8H622.064V175H617.384V149.8ZM639.356 155.56C641.78 155.56 643.724 156.268 645.188 157.684C646.652 159.1 647.384 161.2 647.384 163.984V175H642.884V164.56C642.884 162.88 642.488 161.62 641.696 160.78C640.904 159.916 639.776 159.484 638.312 159.484C636.656 159.484 635.348 159.988 634.388 160.996C633.428 161.98 632.948 163.408 632.948 165.28V175H628.448V155.776H632.732V158.26C633.476 157.372 634.412 156.7 635.54 156.244C636.668 155.788 637.94 155.56 639.356 155.56ZM664.649 173.956C664.121 174.388 663.473 174.712 662.705 174.928C661.961 175.144 661.169 175.252 660.329 175.252C658.217 175.252 656.585 174.7 655.433 173.596C654.281 172.492 653.705 170.884 653.705 168.772V159.52H650.537V155.92H653.705V151.528H658.205V155.92H663.353V159.52H658.205V168.664C658.205 169.6 658.433 170.32 658.889 170.824C659.345 171.304 660.005 171.544 660.869 171.544C661.877 171.544 662.717 171.28 663.389 170.752L664.649 173.956ZM685.79 165.496C685.79 165.808 685.766 166.252 685.718 166.828H670.634C670.898 168.244 671.582 169.372 672.686 170.212C673.814 171.028 675.206 171.436 676.862 171.436C678.974 171.436 680.714 170.74 682.082 169.348L684.494 172.12C683.63 173.152 682.538 173.932 681.218 174.46C679.898 174.988 678.41 175.252 676.754 175.252C674.642 175.252 672.782 174.832 671.174 173.992C669.566 173.152 668.318 171.988 667.43 170.5C666.566 168.988 666.134 167.284 666.134 165.388C666.134 163.516 666.554 161.836 667.394 160.348C668.258 158.836 669.446 157.66 670.958 156.82C672.47 155.98 674.174 155.56 676.07 155.56C677.942 155.56 679.61 155.98 681.074 156.82C682.562 157.636 683.714 158.8 684.53 160.312C685.37 161.8 685.79 163.528 685.79 165.496ZM676.07 159.16C674.63 159.16 673.406 159.592 672.398 160.456C671.414 161.296 670.814 162.424 670.598 163.84H681.506C681.314 162.448 680.726 161.32 679.742 160.456C678.758 159.592 677.534 159.16 676.07 159.16ZM694.396 158.584C695.692 156.568 697.972 155.56 701.236 155.56V159.844C700.852 159.772 700.504 159.736 700.192 159.736C698.44 159.736 697.072 160.252 696.088 161.284C695.104 162.292 694.612 163.756 694.612 165.676V175H690.112V155.776H694.396V158.584ZM713.698 175.252C711.706 175.252 709.918 174.832 708.334 173.992C706.75 173.152 705.514 171.988 704.626 170.5C703.738 168.988 703.294 167.284 703.294 165.388C703.294 163.492 703.738 161.8 704.626 160.312C705.514 158.824 706.738 157.66 708.298 156.82C709.882 155.98 711.682 155.56 713.698 155.56C715.594 155.56 717.25 155.944 718.666 156.712C720.106 157.48 721.186 158.584 721.906 160.024L718.45 162.04C717.898 161.152 717.202 160.492 716.362 160.06C715.546 159.604 714.646 159.376 713.662 159.376C711.982 159.376 710.59 159.928 709.486 161.032C708.382 162.112 707.83 163.564 707.83 165.388C707.83 167.212 708.37 168.676 709.45 169.78C710.554 170.86 711.958 171.4 713.662 171.4C714.646 171.4 715.546 171.184 716.362 170.752C717.202 170.296 717.898 169.624 718.45 168.736L721.906 170.752C721.162 172.192 720.07 173.308 718.63 174.1C717.214 174.868 715.57 175.252 713.698 175.252ZM743.587 165.496C743.587 165.808 743.563 166.252 743.515 166.828H728.431C728.695 168.244 729.379 169.372 730.483 170.212C731.611 171.028 733.003 171.436 734.659 171.436C736.771 171.436 738.511 170.74 739.879 169.348L742.291 172.12C741.427 173.152 740.335 173.932 739.015 174.46C737.695 174.988 736.207 175.252 734.551 175.252C732.439 175.252 730.579 174.832 728.971 173.992C727.363 173.152 726.115 171.988 725.227 170.5C724.363 168.988 723.931 167.284 723.931 165.388C723.931 163.516 724.351 161.836 725.191 160.348C726.055 158.836 727.243 157.66 728.755 156.82C730.267 155.98 731.971 155.56 733.867 155.56C735.739 155.56 737.407 155.98 738.871 156.82C740.359 157.636 741.511 158.8 742.327 160.312C743.167 161.8 743.587 163.528 743.587 165.496ZM733.867 159.16C732.427 159.16 731.203 159.592 730.195 160.456C729.211 161.296 728.611 162.424 728.395 163.84H739.303C739.111 162.448 738.523 161.32 737.539 160.456C736.555 159.592 735.331 159.16 733.867 159.16ZM753.849 175.252C752.289 175.252 750.765 175.048 749.277 174.64C747.789 174.232 746.601 173.716 745.713 173.092L747.441 169.672C748.305 170.248 749.337 170.716 750.537 171.076C751.761 171.412 752.961 171.58 754.137 171.58C756.825 171.58 758.169 170.872 758.169 169.456C758.169 168.784 757.821 168.316 757.125 168.052C756.453 167.788 755.361 167.536 753.849 167.296C752.265 167.056 750.969 166.78 749.961 166.468C748.977 166.156 748.113 165.616 747.369 164.848C746.649 164.056 746.289 162.964 746.289 161.572C746.289 159.748 747.045 158.296 748.557 157.216C750.093 156.112 752.157 155.56 754.749 155.56C756.069 155.56 757.389 155.716 758.709 156.028C760.029 156.316 761.109 156.712 761.949 157.216L760.221 160.636C758.589 159.676 756.753 159.196 754.713 159.196C753.393 159.196 752.385 159.4 751.689 159.808C751.017 160.192 750.681 160.708 750.681 161.356C750.681 162.076 751.041 162.592 751.761 162.904C752.505 163.192 753.645 163.468 755.181 163.732C756.717 163.972 757.977 164.248 758.961 164.56C759.945 164.872 760.785 165.4 761.481 166.144C762.201 166.888 762.561 167.944 762.561 169.312C762.561 171.112 761.781 172.552 760.221 173.632C758.661 174.712 756.537 175.252 753.849 175.252ZM772.376 175.252C770.816 175.252 769.292 175.048 767.804 174.64C766.316 174.232 765.128 173.716 764.24 173.092L765.968 169.672C766.832 170.248 767.864 170.716 769.064 171.076C770.288 171.412 771.488 171.58 772.664 171.58C775.352 171.58 776.696 170.872 776.696 169.456C776.696 168.784 776.348 168.316 775.652 168.052C774.98 167.788 773.888 167.536 772.376 167.296C770.792 167.056 769.496 166.78 768.488 166.468C767.504 166.156 766.64 165.616 765.896 164.848C765.176 164.056 764.816 162.964 764.816 161.572C764.816 159.748 765.572 158.296 767.084 157.216C768.62 156.112 770.684 155.56 773.276 155.56C774.596 155.56 775.916 155.716 777.236 156.028C778.556 156.316 779.636 156.712 780.476 157.216L778.748 160.636C777.116 159.676 775.28 159.196 773.24 159.196C771.92 159.196 770.912 159.4 770.216 159.808C769.544 160.192 769.208 160.708 769.208 161.356C769.208 162.076 769.568 162.592 770.288 162.904C771.032 163.192 772.172 163.468 773.708 163.732C775.244 163.972 776.504 164.248 777.488 164.56C778.472 164.872 779.312 165.4 780.008 166.144C780.728 166.888 781.088 167.944 781.088 169.312C781.088 171.112 780.308 172.552 778.748 173.632C777.188 174.712 775.064 175.252 772.376 175.252ZM803.036 165.496C803.036 165.808 803.012 166.252 802.964 166.828H787.88C788.144 168.244 788.828 169.372 789.932 170.212C791.06 171.028 792.452 171.436 794.108 171.436C796.22 171.436 797.96 170.74 799.328 169.348L801.74 172.12C800.876 173.152 799.784 173.932 798.464 174.46C797.144 174.988 795.656 175.252 794 175.252C791.888 175.252 790.028 174.832 788.42 173.992C786.812 173.152 785.564 171.988 784.676 170.5C783.812 168.988 783.38 167.284 783.38 165.388C783.38 163.516 783.8 161.836 784.64 160.348C785.504 158.836 786.692 157.66 788.204 156.82C789.716 155.98 791.42 155.56 793.316 155.56C795.188 155.56 796.856 155.98 798.32 156.82C799.808 157.636 800.96 158.8 801.776 160.312C802.616 161.8 803.036 163.528 803.036 165.496ZM793.316 159.16C791.876 159.16 790.652 159.592 789.644 160.456C788.66 161.296 788.06 162.424 787.844 163.84H798.752C798.56 162.448 797.972 161.32 796.988 160.456C796.004 159.592 794.78 159.16 793.316 159.16ZM825.97 155.776V175H821.686V172.552C820.966 173.416 820.066 174.088 818.986 174.568C817.906 175.024 816.742 175.252 815.494 175.252C812.926 175.252 810.898 174.544 809.41 173.128C807.946 171.688 807.214 169.564 807.214 166.756V155.776H811.714V166.144C811.714 167.872 812.098 169.168 812.866 170.032C813.658 170.872 814.774 171.292 816.214 171.292C817.822 171.292 819.094 170.8 820.03 169.816C820.99 168.808 821.47 167.368 821.47 165.496V155.776H825.97ZM836.146 158.584C837.442 156.568 839.722 155.56 842.986 155.56V159.844C842.602 159.772 842.254 159.736 841.942 159.736C840.19 159.736 838.822 160.252 837.838 161.284C836.854 162.292 836.362 163.756 836.362 165.676V175H831.862V155.776H836.146V158.584ZM852.814 175.252C851.254 175.252 849.73 175.048 848.242 174.64C846.754 174.232 845.566 173.716 844.678 173.092L846.406 169.672C847.27 170.248 848.302 170.716 849.502 171.076C850.726 171.412 851.926 171.58 853.102 171.58C855.79 171.58 857.134 170.872 857.134 169.456C857.134 168.784 856.786 168.316 856.09 168.052C855.418 167.788 854.326 167.536 852.814 167.296C851.23 167.056 849.934 166.78 848.926 166.468C847.942 166.156 847.078 165.616 846.334 164.848C845.614 164.056 845.254 162.964 845.254 161.572C845.254 159.748 846.01 158.296 847.522 157.216C849.058 156.112 851.122 155.56 853.714 155.56C855.034 155.56 856.354 155.716 857.674 156.028C858.994 156.316 860.074 156.712 860.914 157.216L859.186 160.636C857.554 159.676 855.718 159.196 853.678 159.196C852.358 159.196 851.35 159.4 850.654 159.808C849.982 160.192 849.646 160.708 849.646 161.356C849.646 162.076 850.006 162.592 850.726 162.904C851.47 163.192 852.61 163.468 854.146 163.732C855.682 163.972 856.942 164.248 857.926 164.56C858.91 164.872 859.75 165.4 860.446 166.144C861.166 166.888 861.526 167.944 861.526 169.312C861.526 171.112 860.746 172.552 859.186 173.632C857.626 174.712 855.502 175.252 852.814 175.252Z" fill="white"/>
<path d="M98.196 486.36C96.252 486.36 94.368 486.084 92.544 485.532C90.744 484.98 89.316 484.248 88.26 483.336L89.88 479.7C90.912 480.516 92.172 481.188 93.66 481.716C95.172 482.22 96.684 482.472 98.196 482.472C100.068 482.472 101.46 482.172 102.372 481.572C103.308 480.972 103.776 480.18 103.776 479.196C103.776 478.476 103.512 477.888 102.984 477.432C102.48 476.952 101.832 476.58 101.04 476.316C100.248 476.052 99.168 475.752 97.8 475.416C95.88 474.96 94.32 474.504 93.12 474.048C91.944 473.592 90.924 472.884 90.06 471.924C89.22 470.94 88.8 469.62 88.8 467.964C88.8 466.572 89.172 465.312 89.916 464.184C90.684 463.032 91.824 462.12 93.336 461.448C94.872 460.776 96.744 460.44 98.952 460.44C100.488 460.44 102 460.632 103.488 461.016C104.976 461.4 106.26 461.952 107.34 462.672L105.864 466.308C104.76 465.66 103.608 465.168 102.408 464.832C101.208 464.496 100.044 464.328 98.916 464.328C97.068 464.328 95.688 464.64 94.776 465.264C93.888 465.888 93.444 466.716 93.444 467.748C93.444 468.468 93.696 469.056 94.2 469.512C94.728 469.968 95.388 470.328 96.18 470.592C96.972 470.856 98.052 471.156 99.42 471.492C101.292 471.924 102.828 472.38 104.028 472.86C105.228 473.316 106.248 474.024 107.088 474.984C107.952 475.944 108.384 477.24 108.384 478.872C108.384 480.264 108 481.524 107.232 482.652C106.488 483.78 105.348 484.68 103.812 485.352C102.276 486.024 100.404 486.36 98.196 486.36ZM130.665 476.496C130.665 476.808 130.641 477.252 130.593 477.828H115.509C115.773 479.244 116.457 480.372 117.561 481.212C118.689 482.028 120.081 482.436 121.737 482.436C123.849 482.436 125.589 481.74 126.957 480.348L129.369 483.12C128.505 484.152 127.413 484.932 126.093 485.46C124.773 485.988 123.285 486.252 121.629 486.252C119.517 486.252 117.657 485.832 116.049 484.992C114.441 484.152 113.193 482.988 112.305 481.5C111.441 479.988 111.009 478.284 111.009 476.388C111.009 474.516 111.429 472.836 112.269 471.348C113.133 469.836 114.321 468.66 115.833 467.82C117.345 466.98 119.049 466.56 120.945 466.56C122.817 466.56 124.485 466.98 125.949 467.82C127.437 468.636 128.589 469.8 129.405 471.312C130.245 472.8 130.665 474.528 130.665 476.496ZM120.945 470.16C119.505 470.16 118.281 470.592 117.273 471.456C116.289 472.296 115.689 473.424 115.473 474.84H126.381C126.189 473.448 125.601 472.32 124.617 471.456C123.633 470.592 122.409 470.16 120.945 470.16ZM122.673 459.216H127.965L121.701 464.148H117.813L122.673 459.216ZM143.807 486.252C141.815 486.252 140.027 485.832 138.443 484.992C136.859 484.152 135.623 482.988 134.735 481.5C133.847 479.988 133.403 478.284 133.403 476.388C133.403 474.492 133.847 472.8 134.735 471.312C135.623 469.824 136.847 468.66 138.407 467.82C139.991 466.98 141.791 466.56 143.807 466.56C145.703 466.56 147.359 466.944 148.775 467.712C150.215 468.48 151.295 469.584 152.015 471.024L148.559 473.04C148.007 472.152 147.311 471.492 146.471 471.06C145.655 470.604 144.755 470.376 143.771 470.376C142.091 470.376 140.699 470.928 139.595 472.032C138.491 473.112 137.939 474.564 137.939 476.388C137.939 478.212 138.479 479.676 139.559 480.78C140.663 481.86 142.067 482.4 143.771 482.4C144.755 482.4 145.655 482.184 146.471 481.752C147.311 481.296 148.007 480.624 148.559 479.736L152.015 481.752C151.271 483.192 150.179 484.308 148.739 485.1C147.323 485.868 145.679 486.252 143.807 486.252ZM174.517 466.776V486H170.233V483.552C169.513 484.416 168.613 485.088 167.533 485.568C166.453 486.024 165.289 486.252 164.041 486.252C161.473 486.252 159.445 485.544 157.957 484.128C156.493 482.688 155.761 480.564 155.761 477.756V466.776H160.261V477.144C160.261 478.872 160.645 480.168 161.413 481.032C162.205 481.872 163.321 482.292 164.761 482.292C166.369 482.292 167.641 481.8 168.577 480.816C169.537 479.808 170.017 478.368 170.017 476.496V466.776H174.517ZM184.693 469.584C185.989 467.568 188.269 466.56 191.533 466.56V470.844C191.149 470.772 190.801 470.736 190.489 470.736C188.737 470.736 187.369 471.252 186.385 472.284C185.401 473.292 184.909 474.756 184.909 476.676V486H180.409V466.776H184.693V469.584ZM195.35 466.776H199.85V486H195.35V466.776ZM197.618 463.608C196.802 463.608 196.118 463.356 195.566 462.852C195.014 462.324 194.738 461.676 194.738 460.908C194.738 460.14 195.014 459.504 195.566 459C196.118 458.472 196.802 458.208 197.618 458.208C198.434 458.208 199.118 458.46 199.67 458.964C200.222 459.444 200.498 460.056 200.498 460.8C200.498 461.592 200.222 462.264 199.67 462.816C199.142 463.344 198.458 463.608 197.618 463.608ZM217.313 484.956C216.785 485.388 216.137 485.712 215.369 485.928C214.625 486.144 213.833 486.252 212.993 486.252C210.881 486.252 209.249 485.7 208.097 484.596C206.945 483.492 206.369 481.884 206.369 479.772V470.52H203.201V466.92H206.369V462.528H210.869V466.92H216.017V470.52H210.869V479.664C210.869 480.6 211.097 481.32 211.553 481.824C212.009 482.304 212.669 482.544 213.533 482.544C214.541 482.544 215.381 482.28 216.053 481.752L217.313 484.956ZM238.454 476.496C238.454 476.808 238.43 477.252 238.382 477.828H223.298C223.562 479.244 224.246 480.372 225.35 481.212C226.478 482.028 227.87 482.436 229.526 482.436C231.638 482.436 233.378 481.74 234.746 480.348L237.158 483.12C236.294 484.152 235.202 484.932 233.882 485.46C232.562 485.988 231.074 486.252 229.418 486.252C227.306 486.252 225.446 485.832 223.838 484.992C222.23 484.152 220.982 482.988 220.094 481.5C219.23 479.988 218.798 478.284 218.798 476.388C218.798 474.516 219.218 472.836 220.058 471.348C220.922 469.836 222.11 468.66 223.622 467.82C225.134 466.98 226.838 466.56 228.734 466.56C230.606 466.56 232.274 466.98 233.738 467.82C235.226 468.636 236.378 469.8 237.194 471.312C238.034 472.8 238.454 474.528 238.454 476.496ZM228.734 470.16C227.294 470.16 226.07 470.592 225.062 471.456C224.078 472.296 223.478 473.424 223.262 474.84H234.17C233.978 473.448 233.39 472.32 232.406 471.456C231.422 470.592 230.198 470.16 228.734 470.16ZM230.462 459.216H235.754L229.49 464.148H225.602L230.462 459.216Z" fill="white"/>
<path d="M372.728 480.168H360.128L357.644 486H352.82L364.16 460.8H368.768L380.144 486H375.248L372.728 480.168ZM371.18 476.496L366.428 465.48L361.712 476.496H371.18ZM388.681 486.252C387.121 486.252 385.597 486.048 384.109 485.64C382.621 485.232 381.433 484.716 380.545 484.092L382.273 480.672C383.137 481.248 384.169 481.716 385.369 482.076C386.593 482.412 387.793 482.58 388.969 482.58C391.657 482.58 393.001 481.872 393.001 480.456C393.001 479.784 392.653 479.316 391.957 479.052C391.285 478.788 390.193 478.536 388.681 478.296C387.097 478.056 385.801 477.78 384.793 477.468C383.809 477.156 382.945 476.616 382.201 475.848C381.481 475.056 381.121 473.964 381.121 472.572C381.121 470.748 381.877 469.296 383.389 468.216C384.925 467.112 386.989 466.56 389.581 466.56C390.901 466.56 392.221 466.716 393.541 467.028C394.861 467.316 395.941 467.712 396.781 468.216L395.053 471.636C393.421 470.676 391.585 470.196 389.545 470.196C388.225 470.196 387.217 470.4 386.521 470.808C385.849 471.192 385.513 471.708 385.513 472.356C385.513 473.076 385.873 473.592 386.593 473.904C387.337 474.192 388.477 474.468 390.013 474.732C391.549 474.972 392.809 475.248 393.793 475.56C394.777 475.872 395.617 476.4 396.313 477.144C397.033 477.888 397.393 478.944 397.393 480.312C397.393 482.112 396.613 483.552 395.053 484.632C393.493 485.712 391.369 486.252 388.681 486.252ZM407.208 486.252C405.648 486.252 404.124 486.048 402.636 485.64C401.148 485.232 399.96 484.716 399.072 484.092L400.8 480.672C401.664 481.248 402.696 481.716 403.896 482.076C405.12 482.412 406.32 482.58 407.496 482.58C410.184 482.58 411.528 481.872 411.528 480.456C411.528 479.784 411.18 479.316 410.484 479.052C409.812 478.788 408.72 478.536 407.208 478.296C405.624 478.056 404.328 477.78 403.32 477.468C402.336 477.156 401.472 476.616 400.728 475.848C400.008 475.056 399.648 473.964 399.648 472.572C399.648 470.748 400.404 469.296 401.916 468.216C403.452 467.112 405.516 466.56 408.108 466.56C409.428 466.56 410.748 466.716 412.068 467.028C413.388 467.316 414.468 467.712 415.308 468.216L413.58 471.636C411.948 470.676 410.112 470.196 408.072 470.196C406.752 470.196 405.744 470.4 405.048 470.808C404.376 471.192 404.04 471.708 404.04 472.356C404.04 473.076 404.4 473.592 405.12 473.904C405.864 474.192 407.004 474.468 408.54 474.732C410.076 474.972 411.336 475.248 412.32 475.56C413.304 475.872 414.144 476.4 414.84 477.144C415.56 477.888 415.92 478.944 415.92 480.312C415.92 482.112 415.14 483.552 413.58 484.632C412.02 485.712 409.896 486.252 407.208 486.252ZM419.796 466.776H424.296V486H419.796V466.776ZM422.064 463.608C421.248 463.608 420.564 463.356 420.012 462.852C419.46 462.324 419.184 461.676 419.184 460.908C419.184 460.14 419.46 459.504 420.012 459C420.564 458.472 421.248 458.208 422.064 458.208C422.88 458.208 423.564 458.46 424.116 458.964C424.668 459.444 424.944 460.056 424.944 460.8C424.944 461.592 424.668 462.264 424.116 462.816C423.588 463.344 422.904 463.608 422.064 463.608ZM436.142 486.252C434.582 486.252 433.058 486.048 431.57 485.64C430.082 485.232 428.894 484.716 428.006 484.092L429.734 480.672C430.598 481.248 431.63 481.716 432.83 482.076C434.054 482.412 435.254 482.58 436.43 482.58C439.118 482.58 440.462 481.872 440.462 480.456C440.462 479.784 440.114 479.316 439.418 479.052C438.746 478.788 437.654 478.536 436.142 478.296C434.558 478.056 433.262 477.78 432.254 477.468C431.27 477.156 430.406 476.616 429.662 475.848C428.942 475.056 428.582 473.964 428.582 472.572C428.582 470.748 429.338 469.296 430.85 468.216C432.386 467.112 434.45 466.56 437.042 466.56C438.362 466.56 439.682 466.716 441.002 467.028C442.322 467.316 443.402 467.712 444.242 468.216L442.514 471.636C440.882 470.676 439.046 470.196 437.006 470.196C435.686 470.196 434.678 470.4 433.982 470.808C433.31 471.192 432.974 471.708 432.974 472.356C432.974 473.076 433.334 473.592 434.054 473.904C434.798 474.192 435.938 474.468 437.474 474.732C439.01 474.972 440.27 475.248 441.254 475.56C442.238 475.872 443.078 476.4 443.774 477.144C444.494 477.888 444.854 478.944 444.854 480.312C444.854 482.112 444.074 483.552 442.514 484.632C440.954 485.712 438.83 486.252 436.142 486.252ZM460.285 484.956C459.757 485.388 459.109 485.712 458.341 485.928C457.597 486.144 456.805 486.252 455.965 486.252C453.853 486.252 452.221 485.7 451.069 484.596C449.917 483.492 449.341 481.884 449.341 479.772V470.52H446.173V466.92H449.341V462.528H453.841V466.92H458.989V470.52H453.841V479.664C453.841 480.6 454.069 481.32 454.525 481.824C454.981 482.304 455.641 482.544 456.505 482.544C457.513 482.544 458.353 482.28 459.025 481.752L460.285 484.956ZM471.331 466.56C474.163 466.56 476.323 467.244 477.811 468.612C479.323 469.956 480.079 471.996 480.079 474.732V486H475.831V483.66C475.279 484.5 474.487 485.148 473.455 485.604C472.447 486.036 471.223 486.252 469.783 486.252C468.343 486.252 467.083 486.012 466.003 485.532C464.923 485.028 464.083 484.344 463.483 483.48C462.907 482.592 462.619 481.596 462.619 480.492C462.619 478.764 463.255 477.384 464.527 476.352C465.823 475.296 467.851 474.768 470.611 474.768H475.579V474.48C475.579 473.136 475.171 472.104 474.355 471.384C473.563 470.664 472.375 470.304 470.791 470.304C469.711 470.304 468.643 470.472 467.587 470.808C466.555 471.144 465.679 471.612 464.959 472.212L463.195 468.936C464.203 468.168 465.415 467.58 466.831 467.172C468.247 466.764 469.747 466.56 471.331 466.56ZM470.719 482.976C471.847 482.976 472.843 482.724 473.707 482.22C474.595 481.692 475.219 480.948 475.579 479.988V477.756H470.935C468.343 477.756 467.047 478.608 467.047 480.312C467.047 481.128 467.371 481.776 468.019 482.256C468.667 482.736 469.567 482.976 470.719 482.976ZM496.762 466.56C499.186 466.56 501.13 467.268 502.594 468.684C504.058 470.1 504.79 472.2 504.79 474.984V486H500.29V475.56C500.29 473.88 499.894 472.62 499.102 471.78C498.31 470.916 497.182 470.484 495.718 470.484C494.062 470.484 492.754 470.988 491.794 471.996C490.834 472.98 490.354 474.408 490.354 476.28V486H485.854V466.776H490.138V469.26C490.882 468.372 491.818 467.7 492.946 467.244C494.074 466.788 495.346 466.56 496.762 466.56ZM519.495 486.252C517.503 486.252 515.715 485.832 514.131 484.992C512.547 484.152 511.311 482.988 510.423 481.5C509.535 479.988 509.091 478.284 509.091 476.388C509.091 474.492 509.535 472.8 510.423 471.312C511.311 469.824 512.535 468.66 514.095 467.82C515.679 466.98 517.479 466.56 519.495 466.56C521.391 466.56 523.047 466.944 524.463 467.712C525.903 468.48 526.983 469.584 527.703 471.024L524.247 473.04C523.695 472.152 522.999 471.492 522.159 471.06C521.343 470.604 520.443 470.376 519.459 470.376C517.779 470.376 516.387 470.928 515.283 472.032C514.179 473.112 513.627 474.564 513.627 476.388C513.627 478.212 514.167 479.676 515.247 480.78C516.351 481.86 517.755 482.4 519.459 482.4C520.443 482.4 521.343 482.184 522.159 481.752C522.999 481.296 523.695 480.624 524.247 479.736L527.703 481.752C526.959 483.192 525.867 484.308 524.427 485.1C523.011 485.868 521.367 486.252 519.495 486.252ZM549.383 476.496C549.383 476.808 549.359 477.252 549.311 477.828H534.227C534.491 479.244 535.175 480.372 536.279 481.212C537.407 482.028 538.799 482.436 540.455 482.436C542.567 482.436 544.307 481.74 545.675 480.348L548.087 483.12C547.223 484.152 546.131 484.932 544.811 485.46C543.491 485.988 542.003 486.252 540.347 486.252C538.235 486.252 536.375 485.832 534.767 484.992C533.159 484.152 531.911 482.988 531.023 481.5C530.159 479.988 529.727 478.284 529.727 476.388C529.727 474.516 530.147 472.836 530.987 471.348C531.851 469.836 533.039 468.66 534.551 467.82C536.063 466.98 537.767 466.56 539.663 466.56C541.535 466.56 543.203 466.98 544.667 467.82C546.155 468.636 547.307 469.8 548.123 471.312C548.963 472.8 549.383 474.528 549.383 476.496ZM539.663 470.16C538.223 470.16 536.999 470.592 535.991 471.456C535.007 472.296 534.407 473.424 534.191 474.84H545.099C544.907 473.448 544.319 472.32 543.335 471.456C542.351 470.592 541.127 470.16 539.663 470.16Z" fill="white"/>
<path d="M710.752 468.8C712.936 468.8 714.832 469.16 716.44 469.88C718.072 470.6 719.32 471.632 720.184 472.976C721.048 474.32 721.48 475.916 721.48 477.764C721.48 479.588 721.048 481.184 720.184 482.552C719.32 483.896 718.072 484.928 716.44 485.648C714.832 486.368 712.936 486.728 710.752 486.728H705.064V494H700.384V468.8H710.752ZM710.536 482.768C712.576 482.768 714.124 482.336 715.18 481.472C716.236 480.608 716.764 479.372 716.764 477.764C716.764 476.156 716.236 474.92 715.18 474.056C714.124 473.192 712.576 472.76 710.536 472.76H705.064V482.768H710.536ZM741.232 488.168H728.632L726.148 494H721.324L732.664 468.8H737.272L748.648 494H743.752L741.232 488.168ZM739.684 484.496L734.932 473.48L730.216 484.496H739.684ZM773.557 468.8L762.577 494H757.969L746.953 468.8H752.029L760.417 488.24L768.877 468.8H773.557Z" fill="white"/>
</svg>
